<svg xmlns="http://www.w3.org/2000/svg" xmlns:xlink="http://www.w3.org/1999/xlink" width="500" zoomAndPan="magnify" viewBox="0 0 375 374.999991" height="500" preserveAspectRatio="xMidYMid meet" version="1.0"><defs><clipPath id="c8a1d181c1"><path d="M 53.246094 61.824219 L 321.753906 61.824219 L 321.753906 330.328125 L 53.246094 330.328125 Z M 53.246094 61.824219 " clip-rule="nonzero"/></clipPath><clipPath id="5e388dab86"><path d="M 187.5 61.824219 C 113.355469 61.824219 53.246094 121.929688 53.246094 196.078125 C 53.246094 270.222656 113.355469 330.328125 187.5 330.328125 C 261.644531 330.328125 321.753906 270.222656 321.753906 196.078125 C 321.753906 121.929688 261.644531 61.824219 187.5 61.824219 Z M 187.5 61.824219 " clip-rule="nonzero"/></clipPath><clipPath id="d812638883"><path d="M 67.617188 71.433594 L 307.617188 71.433594 L 307.617188 320.433594 L 67.617188 320.433594 Z M 67.617188 71.433594 " clip-rule="nonzero"/></clipPath></defs><g clip-path="url(#c8a1d181c1)"><g clip-path="url(#5e388dab86)"><path fill="#ff9900" d="M 53.246094 61.824219 L 321.753906 61.824219 L 321.753906 330.328125 L 53.246094 330.328125 Z M 53.246094 61.824219 " fill-opacity="1" fill-rule="nonzero"/></g></g><g clip-path="url(#d812638883)"><path fill="#1a3184" d="M 307.429688 243.683594 C 290.421875 255.542969 269.738281 262.496094 247.433594 262.496094 C 189.421875 262.496094 142.390625 215.464844 142.390625 157.453125 C 142.390625 121.925781 160.027344 90.519531 187.023438 71.511719 C 120.617188 74.246094 67.617188 128.949219 67.617188 196.027344 C 67.617188 264.855469 123.414062 320.652344 192.242188 320.652344 C 244.191406 320.652344 288.714844 288.867188 307.429688 243.683594 Z M 307.429688 243.683594 " fill-opacity="1" fill-rule="evenodd"/></g></svg>