<svg xmlns="http://www.w3.org/2000/svg" xmlns:xlink="http://www.w3.org/1999/xlink" width="500" zoomAndPan="magnify" viewBox="0 0 375 374.999991" height="500" preserveAspectRatio="xMidYMid meet" version="1.0"><defs><clipPath id="14fc59498d"><path d="M 53.246094 45.15625 L 321.753906 45.15625 L 321.753906 313.664062 L 53.246094 313.664062 Z M 53.246094 45.15625 " clip-rule="nonzero"/></clipPath><clipPath id="c01dd4ef02"><path d="M 187.5 45.15625 C 113.355469 45.15625 53.246094 105.261719 53.246094 179.410156 C 53.246094 253.554688 113.355469 313.664062 187.5 313.664062 C 261.644531 313.664062 321.753906 253.554688 321.753906 179.410156 C 321.753906 105.261719 261.644531 45.15625 187.5 45.15625 Z M 187.5 45.15625 " clip-rule="nonzero"/></clipPath><clipPath id="79f4363e10"><path d="M 77.082031 68.992188 L 297.582031 68.992188 L 297.582031 289.492188 L 77.082031 289.492188 Z M 77.082031 68.992188 " clip-rule="nonzero"/></clipPath></defs><g clip-path="url(#14fc59498d)"><g clip-path="url(#c01dd4ef02)"><path fill="#2d3f80" d="M 53.246094 45.15625 L 321.753906 45.15625 L 321.753906 313.664062 L 53.246094 313.664062 Z M 53.246094 45.15625 " fill-opacity="1" fill-rule="nonzero"/></g></g><g clip-path="url(#79f4363e10)"><path fill="#ff9900" d="M 142.863281 123.636719 L 120.546875 101.320312 C 117.46875 98.242188 112.507812 98.242188 109.433594 101.320312 C 106.355469 104.398438 106.355469 109.359375 109.433594 112.433594 L 131.75 134.75 C 133.25 136.328125 135.296875 137.121094 137.34375 137.121094 C 139.316406 137.121094 141.363281 136.328125 142.863281 134.75 C 145.941406 131.6875 145.941406 126.714844 142.863281 123.636719 Z M 116.527344 171.507812 L 84.980469 171.507812 C 80.636719 171.507812 77.089844 175.058594 77.089844 179.398438 C 77.089844 183.742188 80.636719 187.289062 84.980469 187.289062 L 116.527344 187.289062 C 120.871094 187.289062 124.417969 183.742188 124.417969 179.398438 C 124.417969 175.058594 120.855469 171.507812 116.527344 171.507812 Z M 142.863281 224.035156 C 139.785156 220.957031 134.824219 220.957031 131.75 224.035156 L 109.433594 246.351562 C 106.355469 249.425781 106.355469 254.386719 109.433594 257.464844 C 111.007812 258.964844 112.980469 259.746094 115.027344 259.746094 C 117 259.746094 119.046875 258.953125 120.546875 257.464844 L 142.863281 235.148438 C 145.941406 232.085938 145.941406 227.109375 142.863281 224.035156 Z M 187.496094 242.492188 C 183.15625 242.492188 179.605469 246.042969 179.605469 250.382812 L 179.605469 281.929688 C 179.605469 286.273438 183.15625 289.820312 187.496094 289.820312 C 191.839844 289.820312 195.386719 286.273438 195.386719 281.929688 L 195.386719 250.382812 C 195.386719 246.042969 191.839844 242.492188 187.496094 242.492188 Z M 265.578125 246.351562 L 243.261719 224.035156 C 240.183594 220.957031 235.222656 220.957031 232.144531 224.035156 C 229.070312 227.109375 229.070312 232.070312 232.144531 235.148438 L 254.460938 257.464844 C 255.964844 258.964844 258.011719 259.746094 259.984375 259.746094 C 262.027344 259.746094 264 258.953125 265.578125 257.464844 C 268.652344 254.402344 268.652344 249.425781 265.578125 246.351562 Z M 290.015625 171.507812 L 258.46875 171.507812 C 254.125 171.507812 250.578125 175.058594 250.578125 179.398438 C 250.578125 183.742188 254.125 187.289062 258.46875 187.289062 L 290.015625 187.289062 C 294.355469 187.289062 297.902344 183.742188 297.902344 179.398438 C 297.902344 175.058594 294.355469 171.507812 290.015625 171.507812 Z M 265.578125 101.320312 C 262.5 98.242188 257.539062 98.242188 254.460938 101.320312 L 232.144531 123.636719 C 229.070312 126.714844 229.070312 131.675781 232.144531 134.75 C 233.648438 136.328125 235.695312 137.121094 237.667969 137.121094 C 239.710938 137.121094 241.773438 136.328125 243.261719 134.75 L 265.578125 112.433594 C 268.652344 109.371094 268.652344 104.398438 265.578125 101.320312 Z M 187.496094 68.992188 C 183.15625 68.992188 179.605469 72.539062 179.605469 76.882812 L 179.605469 108.429688 C 179.605469 112.773438 183.15625 116.320312 187.496094 116.320312 C 191.839844 116.320312 195.386719 112.773438 195.386719 108.429688 L 195.386719 76.882812 C 195.386719 72.539062 191.839844 68.992188 187.496094 68.992188 Z M 242.699219 179.398438 C 242.699219 209.917969 218.015625 234.601562 187.496094 234.601562 C 156.980469 234.601562 132.292969 209.917969 132.292969 179.398438 C 132.292969 148.882812 156.980469 124.195312 187.496094 124.195312 C 218.015625 124.195312 242.699219 148.882812 242.699219 179.398438 Z M 242.699219 179.398438 " fill-opacity="1" fill-rule="nonzero"/></g></svg>