<svg xmlns="http://www.w3.org/2000/svg" xmlns:xlink="http://www.w3.org/1999/xlink" width="500" zoomAndPan="magnify" viewBox="0 0 375 374.999991" height="500" preserveAspectRatio="xMidYMid meet" version="1.0"><defs><clipPath id="ecc01a85d4"><path d="M 24.230469 122.4375 L 268 122.4375 L 268 269 L 24.230469 269 Z M 24.230469 122.4375 " clip-rule="nonzero"/></clipPath><clipPath id="449bd99893"><path d="M 82 138 L 350.480469 138 L 350.480469 292.6875 L 82 292.6875 Z M 82 138 " clip-rule="nonzero"/></clipPath></defs><path fill="#fbbe63" d="M 146.023438 150.019531 C 143.535156 150.019531 141.519531 148.003906 141.519531 145.519531 L 141.519531 132.945312 C 141.519531 130.460938 143.535156 128.445312 146.023438 128.445312 C 148.507812 128.445312 150.523438 130.460938 150.523438 132.945312 L 150.523438 145.519531 C 150.523438 148.003906 148.507812 150.019531 146.023438 150.019531 Z M 146.023438 150.019531 " fill-opacity="1" fill-rule="nonzero"/><path fill="#fbbe63" d="M 256.824219 248.25 L 242.773438 248.25 C 240.289062 248.25 238.273438 246.234375 238.273438 243.75 C 238.273438 241.261719 240.289062 239.246094 242.773438 239.246094 L 256.824219 239.246094 C 259.308594 239.246094 261.324219 241.261719 261.324219 243.75 C 261.324219 246.234375 259.308594 248.25 256.824219 248.25 Z M 256.824219 248.25 " fill-opacity="1" fill-rule="nonzero"/><path fill="#fbbe63" d="M 46.296875 248.25 L 35.21875 248.25 C 32.734375 248.25 30.71875 246.234375 30.71875 243.75 C 30.71875 241.261719 32.734375 239.246094 35.21875 239.246094 L 46.296875 239.246094 C 48.78125 239.246094 50.796875 241.261719 50.796875 243.75 C 50.796875 246.234375 48.78125 248.25 46.296875 248.25 Z M 46.296875 248.25 " fill-opacity="1" fill-rule="nonzero"/><path fill="#fbbe63" d="M 96.980469 161.871094 C 95.414062 161.871094 93.890625 161.050781 93.0625 159.589844 L 87.398438 149.617188 C 86.171875 147.457031 86.929688 144.707031 89.089844 143.480469 C 91.253906 142.253906 94 143.011719 95.226562 145.171875 L 100.890625 155.144531 C 102.121094 157.308594 101.363281 160.054688 99.199219 161.285156 C 98.5 161.679688 97.734375 161.871094 96.980469 161.871094 Z M 96.980469 161.871094 " fill-opacity="1" fill-rule="nonzero"/><path fill="#fbbe63" d="M 230.988281 200.011719 C 229.417969 200.011719 227.894531 199.195312 227.066406 197.734375 C 225.839844 195.570312 226.597656 192.824219 228.757812 191.597656 L 240.152344 185.128906 C 242.3125 183.902344 245.0625 184.660156 246.289062 186.820312 C 247.515625 188.984375 246.757812 191.730469 244.59375 192.957031 L 233.203125 199.425781 C 232.503906 199.824219 231.738281 200.011719 230.988281 200.011719 Z M 230.988281 200.011719 " fill-opacity="1" fill-rule="nonzero"/><path fill="#fbbe63" d="M 59.859375 197.390625 C 59.082031 197.390625 58.292969 197.1875 57.574219 196.761719 L 48.316406 191.296875 C 46.175781 190.035156 45.464844 187.273438 46.726562 185.132812 C 47.992188 182.992188 50.753906 182.28125 52.894531 183.542969 L 62.152344 189.011719 C 64.292969 190.273438 65.003906 193.035156 63.738281 195.175781 C 62.898438 196.597656 61.398438 197.390625 59.859375 197.390625 Z M 59.859375 197.390625 " fill-opacity="1" fill-rule="nonzero"/><path fill="#fbbe63" d="M 196.289062 163.09375 C 195.511719 163.09375 194.722656 162.890625 194.003906 162.46875 C 191.863281 161.203125 191.152344 158.441406 192.417969 156.300781 L 198.472656 146.046875 C 199.734375 143.90625 202.496094 143.191406 204.636719 144.457031 C 206.777344 145.71875 207.488281 148.480469 206.226562 150.621094 L 200.171875 160.878906 C 199.332031 162.300781 197.832031 163.09375 196.289062 163.09375 Z M 196.289062 163.09375 " fill-opacity="1" fill-rule="nonzero"/><path fill="#fbbe63" d="M 121.753906 153.066406 C 119.746094 153.066406 117.914062 151.710938 117.394531 149.671875 L 114.292969 137.492188 C 113.675781 135.082031 115.132812 132.632812 117.542969 132.019531 C 119.949219 131.40625 122.402344 132.859375 123.015625 135.269531 L 126.121094 147.453125 C 126.734375 149.859375 125.277344 152.3125 122.871094 152.925781 C 122.496094 153.019531 122.121094 153.066406 121.753906 153.066406 Z M 121.753906 153.066406 " fill-opacity="1" fill-rule="nonzero"/><path fill="#fbbe63" d="M 77.160156 176.660156 C 75.980469 176.660156 74.800781 176.199219 73.917969 175.277344 L 65.964844 167.015625 C 64.238281 165.222656 64.296875 162.371094 66.089844 160.648438 C 67.882812 158.925781 70.730469 158.980469 72.453125 160.773438 L 80.40625 169.035156 C 82.128906 170.828125 82.074219 173.675781 80.28125 175.402344 C 79.410156 176.242188 78.285156 176.660156 77.160156 176.660156 Z M 77.160156 176.660156 " fill-opacity="1" fill-rule="nonzero"/><path fill="#fbbe63" d="M 216.433594 180.519531 C 215.253906 180.519531 214.074219 180.058594 213.191406 179.140625 C 211.46875 177.347656 211.523438 174.5 213.3125 172.773438 L 222.757812 163.691406 C 224.550781 161.96875 227.398438 162.023438 229.121094 163.816406 C 230.84375 165.609375 230.789062 168.460938 228.996094 170.183594 L 219.554688 179.265625 C 218.683594 180.105469 217.558594 180.519531 216.433594 180.519531 Z M 216.433594 180.519531 " fill-opacity="1" fill-rule="nonzero"/><path fill="#fbbe63" d="M 49.972656 220.246094 C 49.554688 220.246094 49.132812 220.191406 48.710938 220.066406 L 38.390625 217.054688 C 36.003906 216.359375 34.632812 213.863281 35.328125 211.476562 C 36.019531 209.089844 38.523438 207.71875 40.90625 208.410156 L 51.230469 211.421875 C 53.617188 212.117188 54.988281 214.617188 54.292969 217.003906 C 53.71875 218.96875 51.921875 220.246094 49.972656 220.246094 Z M 49.972656 220.246094 " fill-opacity="1" fill-rule="nonzero"/><path fill="#fbbe63" d="M 173.703125 153.3125 C 173.285156 153.3125 172.863281 153.253906 172.441406 153.132812 C 170.054688 152.4375 168.683594 149.9375 169.378906 147.550781 L 172.714844 136.113281 C 173.410156 133.726562 175.90625 132.355469 178.296875 133.054688 C 180.683594 133.75 182.050781 136.25 181.355469 138.636719 L 178.023438 150.070312 C 177.449219 152.039062 175.65625 153.3125 173.703125 153.3125 Z M 173.703125 153.3125 " fill-opacity="1" fill-rule="nonzero"/><g clip-path="url(#ecc01a85d4)"><path fill="#448bff" d="M 261.199219 268.425781 L 224.03125 268.425781 C 221.546875 268.425781 219.53125 266.410156 219.53125 263.925781 L 219.53125 257.523438 L 199.320312 257.523438 C 196.835938 257.523438 194.820312 255.507812 194.820312 253.019531 C 194.820312 250.535156 196.835938 248.519531 199.320312 248.519531 L 224.03125 248.519531 C 226.519531 248.519531 228.535156 250.535156 228.535156 253.019531 L 228.535156 259.421875 L 257.34375 259.421875 C 258.058594 254.261719 258.421875 249.035156 258.421875 243.835938 C 258.421875 235.21875 257.441406 226.636719 255.515625 218.324219 C 254.953125 215.902344 256.464844 213.484375 258.886719 212.921875 C 261.304688 212.359375 263.726562 213.867188 264.285156 216.292969 C 266.367188 225.265625 267.425781 234.535156 267.425781 243.835938 C 267.425781 250.808594 266.824219 257.824219 265.632812 264.691406 C 265.261719 266.851562 263.390625 268.425781 261.199219 268.425781 Z M 68.011719 268.425781 L 30.847656 268.425781 C 28.65625 268.425781 26.785156 266.851562 26.410156 264.691406 C 25.222656 257.828125 24.621094 250.8125 24.621094 243.835938 C 24.621094 206.898438 41.140625 172.414062 69.945312 149.222656 C 71.878906 147.664062 74.714844 147.96875 76.273438 149.90625 C 77.832031 151.84375 77.527344 154.675781 75.589844 156.234375 C 48.917969 177.707031 33.621094 209.636719 33.621094 243.835938 C 33.621094 249.039062 33.984375 254.265625 34.699219 259.421875 L 63.511719 259.421875 L 63.511719 253.019531 C 63.511719 250.535156 65.527344 248.519531 68.011719 248.519531 L 142.4375 248.519531 C 144.925781 248.519531 146.941406 250.535156 146.941406 253.019531 C 146.941406 255.507812 144.925781 257.523438 142.4375 257.523438 L 72.515625 257.523438 L 72.515625 263.925781 C 72.511719 266.410156 70.496094 268.425781 68.011719 268.425781 Z M 202.339844 223.257812 L 71.582031 223.257812 C 70.128906 223.257812 68.769531 222.558594 67.921875 221.378906 C 67.078125 220.203125 66.851562 218.691406 67.3125 217.316406 C 78.707031 183.5 110.335938 160.777344 146.019531 160.777344 C 177.917969 160.777344 206.488281 178.578125 220.578125 207.238281 C 221.671875 209.46875 220.753906 212.167969 218.523438 213.261719 C 216.292969 214.359375 213.59375 213.441406 212.496094 211.207031 C 199.933594 185.65625 174.460938 169.78125 146.019531 169.78125 C 116.339844 169.78125 89.808594 187.40625 78.132812 214.253906 L 202.339844 214.253906 C 204.824219 214.253906 206.839844 216.269531 206.839844 218.753906 C 206.839844 221.242188 204.824219 223.257812 202.339844 223.257812 Z M 249.269531 193.453125 C 247.65625 193.453125 246.101562 192.585938 245.289062 191.066406 C 225.695312 154.285156 187.660156 131.4375 146.019531 131.4375 C 130.121094 131.4375 114.753906 134.6875 100.347656 141.101562 C 98.078125 142.113281 95.417969 141.089844 94.40625 138.820312 C 93.394531 136.546875 94.414062 133.886719 96.6875 132.875 C 112.25 125.945312 128.847656 122.433594 146.019531 122.433594 C 190.988281 122.433594 232.074219 147.109375 253.234375 186.832031 C 254.40625 189.027344 253.574219 191.753906 251.378906 192.921875 C 250.707031 193.28125 249.980469 193.453125 249.269531 193.453125 Z M 249.269531 193.453125 " fill-opacity="1" fill-rule="nonzero"/></g><path fill="#fbbe63" d="M 146.960938 231.476562 C 146.960938 231.902344 146.921875 232.324219 146.839844 232.742188 C 146.753906 233.160156 146.632812 233.566406 146.46875 233.960938 C 146.304688 234.351562 146.105469 234.726562 145.867188 235.082031 C 145.632812 235.433594 145.363281 235.761719 145.0625 236.066406 C 144.761719 236.367188 144.433594 236.636719 144.078125 236.871094 C 143.722656 237.109375 143.351562 237.308594 142.957031 237.472656 C 142.5625 237.632812 142.15625 237.757812 141.738281 237.839844 C 141.320312 237.925781 140.898438 237.964844 140.472656 237.964844 C 140.046875 237.964844 139.625 237.925781 139.207031 237.839844 C 138.789062 237.757812 138.382812 237.632812 137.988281 237.472656 C 137.59375 237.308594 137.222656 237.109375 136.867188 236.871094 C 136.511719 236.636719 136.183594 236.367188 135.882812 236.066406 C 135.582031 235.761719 135.3125 235.433594 135.074219 235.082031 C 134.839844 234.726562 134.640625 234.351562 134.476562 233.960938 C 134.3125 233.566406 134.191406 233.160156 134.105469 232.742188 C 134.023438 232.324219 133.980469 231.902344 133.980469 231.476562 C 133.980469 231.050781 134.023438 230.628906 134.105469 230.210938 C 134.191406 229.792969 134.3125 229.386719 134.476562 228.992188 C 134.640625 228.597656 134.839844 228.222656 135.074219 227.871094 C 135.3125 227.515625 135.582031 227.1875 135.882812 226.886719 C 136.183594 226.585938 136.511719 226.316406 136.867188 226.078125 C 137.222656 225.84375 137.59375 225.640625 137.988281 225.480469 C 138.382812 225.316406 138.789062 225.191406 139.207031 225.109375 C 139.625 225.027344 140.046875 224.984375 140.472656 224.984375 C 140.898438 224.984375 141.320312 225.027344 141.738281 225.109375 C 142.15625 225.191406 142.5625 225.316406 142.957031 225.480469 C 143.351562 225.640625 143.722656 225.84375 144.078125 226.078125 C 144.433594 226.316406 144.761719 226.585938 145.0625 226.886719 C 145.363281 227.1875 145.632812 227.515625 145.867188 227.871094 C 146.105469 228.222656 146.304688 228.597656 146.46875 228.992188 C 146.632812 229.386719 146.753906 229.792969 146.839844 230.210938 C 146.921875 230.628906 146.960938 231.050781 146.960938 231.476562 Z M 146.960938 231.476562 " fill-opacity="1" fill-rule="nonzero"/><g clip-path="url(#449bd99893)"><path fill="#fbbe63" d="M 333.304688 138.335938 L 82.5 287.003906 L 350.371094 292.832031 Z M 196.460938 255.6875 L 299.71875 194.484375 L 306.742188 258.089844 Z M 196.460938 255.6875 " fill-opacity="1" fill-rule="nonzero"/></g><path fill="#448bff" d="M 140.46875 286.46875 C 137.984375 286.46875 135.96875 284.453125 135.96875 281.964844 L 135.96875 274.078125 C 135.96875 271.589844 137.984375 269.574219 140.46875 269.574219 C 142.957031 269.574219 144.972656 271.589844 144.972656 274.078125 L 144.972656 281.964844 C 144.972656 284.453125 142.957031 286.46875 140.46875 286.46875 Z M 140.46875 286.46875 " fill-opacity="1" fill-rule="nonzero"/><path fill="#448bff" d="M 157.378906 286.46875 C 154.894531 286.46875 152.878906 284.453125 152.878906 281.964844 L 152.878906 274.078125 C 152.878906 271.589844 154.894531 269.574219 157.378906 269.574219 C 159.863281 269.574219 161.878906 271.589844 161.878906 274.078125 L 161.878906 281.964844 C 161.878906 284.453125 159.863281 286.46875 157.378906 286.46875 Z M 157.378906 286.46875 " fill-opacity="1" fill-rule="nonzero"/><path fill="#448bff" d="M 174.289062 286.46875 C 171.800781 286.46875 169.785156 284.453125 169.785156 281.964844 L 169.785156 274.078125 C 169.785156 271.589844 171.800781 269.574219 174.289062 269.574219 C 176.773438 269.574219 178.789062 271.589844 178.789062 274.078125 L 178.789062 281.964844 C 178.789062 284.453125 176.773438 286.46875 174.289062 286.46875 Z M 174.289062 286.46875 " fill-opacity="1" fill-rule="nonzero"/><path fill="#448bff" d="M 191.195312 286.46875 C 188.707031 286.46875 186.691406 284.453125 186.691406 281.964844 L 186.691406 274.078125 C 186.691406 271.589844 188.707031 269.574219 191.195312 269.574219 C 193.679688 269.574219 195.695312 271.589844 195.695312 274.078125 L 195.695312 281.964844 C 195.695312 284.453125 193.679688 286.46875 191.195312 286.46875 Z M 191.195312 286.46875 " fill-opacity="1" fill-rule="nonzero"/><path fill="#448bff" d="M 208.101562 286.46875 C 205.613281 286.46875 203.597656 284.453125 203.597656 281.964844 L 203.597656 274.078125 C 203.597656 271.589844 205.613281 269.574219 208.101562 269.574219 C 210.585938 269.574219 212.601562 271.589844 212.601562 274.078125 L 212.601562 281.964844 C 212.601562 284.453125 210.585938 286.46875 208.101562 286.46875 Z M 208.101562 286.46875 " fill-opacity="1" fill-rule="nonzero"/><path fill="#448bff" d="M 225.007812 286.46875 C 222.523438 286.46875 220.507812 284.453125 220.507812 281.964844 L 220.507812 274.078125 C 220.507812 271.589844 222.523438 269.574219 225.007812 269.574219 C 227.496094 269.574219 229.511719 271.589844 229.511719 274.078125 L 229.511719 281.964844 C 229.511719 284.453125 227.496094 286.46875 225.007812 286.46875 Z M 225.007812 286.46875 " fill-opacity="1" fill-rule="nonzero"/><path fill="#448bff" d="M 241.917969 286.46875 C 239.429688 286.46875 237.414062 284.453125 237.414062 281.964844 L 237.414062 274.078125 C 237.414062 271.589844 239.429688 269.574219 241.917969 269.574219 C 244.402344 269.574219 246.417969 271.589844 246.417969 274.078125 L 246.417969 281.964844 C 246.417969 284.453125 244.402344 286.46875 241.917969 286.46875 Z M 241.917969 286.46875 " fill-opacity="1" fill-rule="nonzero"/><path fill="#448bff" d="M 258.824219 286.46875 C 256.339844 286.46875 254.324219 284.453125 254.324219 281.964844 L 254.324219 274.078125 C 254.324219 271.589844 256.339844 269.574219 258.824219 269.574219 C 261.308594 269.574219 263.324219 271.589844 263.324219 274.078125 L 263.324219 281.964844 C 263.324219 284.453125 261.308594 286.46875 258.824219 286.46875 Z M 258.824219 286.46875 " fill-opacity="1" fill-rule="nonzero"/><path fill="#448bff" d="M 275.730469 286.46875 C 273.246094 286.46875 271.230469 284.453125 271.230469 281.964844 L 271.230469 274.078125 C 271.230469 271.589844 273.246094 269.574219 275.730469 269.574219 C 278.21875 269.574219 280.234375 271.589844 280.234375 274.078125 L 280.234375 281.964844 C 280.234375 284.453125 278.21875 286.46875 275.730469 286.46875 Z M 275.730469 286.46875 " fill-opacity="1" fill-rule="nonzero"/><path fill="#448bff" d="M 292.640625 286.46875 C 290.152344 286.46875 288.136719 284.453125 288.136719 281.964844 L 288.136719 274.078125 C 288.136719 271.589844 290.152344 269.574219 292.640625 269.574219 C 295.125 269.574219 297.140625 271.589844 297.140625 274.078125 L 297.140625 281.964844 C 297.140625 284.453125 295.125 286.46875 292.640625 286.46875 Z M 292.640625 286.46875 " fill-opacity="1" fill-rule="nonzero"/><path fill="#448bff" d="M 309.546875 286.46875 C 307.0625 286.46875 305.046875 284.453125 305.046875 281.964844 L 305.046875 274.078125 C 305.046875 271.589844 307.0625 269.574219 309.546875 269.574219 C 312.035156 269.574219 314.050781 271.589844 314.050781 274.078125 L 314.050781 281.964844 C 314.050781 284.453125 312.035156 286.46875 309.546875 286.46875 Z M 309.546875 286.46875 " fill-opacity="1" fill-rule="nonzero"/><path fill="#448bff" d="M 326.453125 286.46875 C 323.96875 286.46875 321.953125 284.453125 321.953125 281.964844 L 321.953125 274.078125 C 321.953125 271.589844 323.96875 269.574219 326.453125 269.574219 C 328.941406 269.574219 330.957031 271.589844 330.957031 274.078125 L 330.957031 281.964844 C 330.957031 284.453125 328.941406 286.46875 326.453125 286.46875 Z M 326.453125 286.46875 " fill-opacity="1" fill-rule="nonzero"/></svg>