<svg xmlns="http://www.w3.org/2000/svg" xmlns:xlink="http://www.w3.org/1999/xlink" width="500" zoomAndPan="magnify" viewBox="0 0 375 374.999991" height="500" preserveAspectRatio="xMidYMid meet" version="1.0"><defs><clipPath id="97618a2d5b"><path d="M 71.089844 71.089844 L 303.589844 71.089844 L 303.589844 303.589844 L 71.089844 303.589844 Z M 71.089844 71.089844 " clip-rule="nonzero"/></clipPath></defs><g clip-path="url(#97618a2d5b)"><path fill="#d87500" d="M 269.804688 105.183594 C 247.820312 83.195312 218.589844 71.089844 187.496094 71.089844 C 156.402344 71.089844 127.167969 83.195312 105.183594 105.183594 C 83.195312 127.167969 71.089844 156.402344 71.089844 187.496094 C 71.089844 218.589844 83.195312 247.820312 105.183594 269.804688 C 127.167969 291.792969 156.402344 303.902344 187.496094 303.902344 C 218.589844 303.902344 247.820312 291.792969 269.804688 269.804688 C 291.792969 247.820312 303.902344 218.589844 303.902344 187.496094 C 303.902344 156.402344 291.792969 127.167969 269.804688 105.183594 Z M 110.464844 110.464844 C 131.039062 89.890625 158.398438 78.558594 187.496094 78.558594 C 216.59375 78.558594 243.949219 89.890625 264.523438 110.464844 C 285.097656 131.039062 296.429688 158.398438 296.429688 187.496094 C 296.429688 211.683594 288.59375 234.664062 274.132812 253.550781 C 262.621094 237.460938 244.242188 227.953125 224.285156 227.953125 L 150.703125 227.953125 C 130.746094 227.953125 112.367188 237.460938 100.859375 253.550781 C 86.394531 234.664062 78.558594 211.683594 78.558594 187.496094 C 78.558594 158.398438 89.890625 131.039062 110.464844 110.464844 Z M 187.496094 221.816406 C 217.402344 221.816406 241.734375 197.484375 241.734375 167.574219 C 241.734375 137.667969 217.402344 113.335938 187.496094 113.335938 C 157.585938 113.335938 133.253906 137.667969 133.253906 167.574219 C 133.253906 197.484375 157.585938 221.816406 187.496094 221.816406 Z M 187.496094 221.816406 " fill-opacity="1" fill-rule="nonzero"/></g></svg>